<svg xmlns="http://www.w3.org/2000/svg" xmlns:xlink="http://www.w3.org/1999/xlink" viewBox="0 0 512.002 512.002" fill="#ffffff"><defs/><path d="M376.48 264.353c-15.874-5.281-45.886-9.315-78.225-3.304-40.085 7.453-72.487 28.448-93.699 60.717a10.408 10.408 0 007.691 16.074c.305.03 27.648 2.723 58.695 8.972l-6.663 21.203c-1.723 5.484 1.325 11.324 6.807 13.047 1.038.326 2.088.482 3.122.482 4.423 0 8.527-2.845 9.924-7.289l7.193-22.893a353.276 353.276 0 0112.806 3.414c.181.052.364.108.546.16l-7.074 21.838c-1.771 5.467 1.226 11.335 6.693 13.106 1.065.344 2.147.509 3.208.509 4.39 0 8.471-2.8 9.897-7.203l7.177-22.157c2.518.802 4.996 1.598 7.43 2.381 15.669 5.039 26.99 8.68 34.536 9.256.269.022.537.031.802.031 5.387 0 9.948-4.155 10.364-9.616.437-5.73-3.854-10.729-9.585-11.165-5.097-.389-17.07-4.239-29.746-8.316-5.567-1.791-11.323-3.642-17.453-5.527a619.118 619.118 0 00-11.032-3.293c-7.128-2.053-14.973-4.045-23.315-5.919-20.517-4.61-40.325-7.696-54.015-9.543 45.726-51.437 118.807-41.384 137.342-35.217 14.721 4.901 39.14 16.751 37.281 41.049-.438 5.73 3.851 10.731 9.581 11.168 5.741.436 10.731-3.851 11.168-9.581 2.149-28.046-16.607-50.783-51.456-62.384z"/><path d="M467.747 135.769c-.595-3.894-4.751-18.29-7.733-28.371 5.514-1.156 12.682.727 21.43 5.671a10.412 10.412 0 0010.888-.397 10.41 10.41 0 004.565-9.894c-.483-4.048-12.555-99.147-75.925-102.6-25.332-1.374-44.484 5.234-56.894 19.659-16.801 19.529-20.171 52.184-10.302 99.829 4.403 21.282 13.331 76.479 17.606 103.3-13.501-2.496-27.433-3.776-41.609-3.776-37.615 0-73.358 8.901-102.189 25.256-11.524-32.504-28.189-66.756-37.757-80.156-10.15-14.22-25.227-23.638-42.455-26.518-17.227-2.877-34.55 1.124-48.768 11.272-14.048 10.023-23.428 24.901-26.416 41.894-1.914 10.888-1.066 21.857 2.363 32.068-24.088 3.309-44.996 19.951-53.063 43.979-8.466 25.179-.614 52.506 18.384 69.556a65.367 65.367 0 00-18.701 23.674c-6.95 14.893-8.039 31.727-3.068 47.405 8.83 27.82 34.649 45.633 62.391 45.633a64.98 64.98 0 0013.928-1.524c5.479 10.366 16.902 18.36 32.19 22.139a100.767 100.767 0 0024.094 2.913c14.374 0 28.715-3.048 41.889-9.037 18.071-8.218 33.407-21.732 43.889-38.516 20.062 9.83 43.118 16.362 67.251 19.11v42.853h-22.531c-5.747 0-10.406 4.66-10.406 10.406s4.659 10.406 10.406 10.406h109.085c5.747 0 10.406-4.66 10.406-10.406s-4.659-10.406-10.406-10.406h-21.218v-44.703c27.191-4.712 52.29-14.3 72.971-28.126 31.007-20.727 48.957-48.753 50.688-78.95.049-.28.093-.561.119-.849 5.685-62.375-25.005-145.756-35.563-172.21 8.068-7.155 12.279-18.663 10.461-30.584zM97.198 429.213a75.399 75.399 0 01-3.269 1.135c-23.436 7.426-48.551-5.591-55.988-29.021-7.029-22.165 3.826-45.633 25.249-54.589a10.408 10.408 0 00.574-18.94c-19.945-9.798-29.64-33.091-22.548-54.183 6.853-20.41 27.279-33.002 48.56-29.941a10.406 10.406 0 0010.058-16.19c-13.66-19.89-8.79-47.478 10.859-61.497 9.694-6.92 21.503-9.65 33.248-7.687 11.747 1.964 22.027 8.386 28.948 18.083 8.177 11.453 25.387 46.258 36.774 79.891-27.799 21.277-43.008 48.815-43.008 78.241 0 16.346 4.883 32.496 14.173 47.242-28.63 21.138-66.419 41.006-83.63 47.456zm86.784 19.583c-16.345 7.433-34.951 9.158-52.384 4.865-6.082-1.504-13.165-4.63-17.046-9.147 20.826-9.331 53.18-27.151 79.021-46.298 7.07 7.581 15.357 14.513 24.789 20.718-8.308 12.991-20.294 23.457-34.38 29.862zm164.278 42.393h-23.713v-41.438c1.741.04 3.481.079 5.226.079 6.218 0 12.388-.251 18.488-.734v42.093zm123.755-154.01c-1.009 23.961-15.762 46.647-41.538 63.878-20.25 13.538-45.457 22.507-72.83 26.138-.043.004-.084.01-.127.015a212.046 212.046 0 01-27.748 1.808c-33.703 0-66.443-8.064-92.188-22.706-14.219-8.09-25.763-17.76-34.317-28.748-10.486-13.449-15.802-27.934-15.802-43.05 0-24.529 14.32-47.857 40.322-65.69l.083-.055c27.093-18.551 63.277-28.767 101.902-28.767 17.822 0 35.197 2.183 51.641 6.486l.004.001c54.228 14.17 90.662 49.545 90.662 88.026 0 .94-.019 1.782-.064 2.664zm-4.687-64.899a123.286 123.286 0 00-5.208-5.415c-17.578-17.199-41.276-30.48-68.835-38.654-3.385-21.406-14.029-88.089-19.134-112.761-8.35-40.333-6.434-67.934 5.702-82.04 8.088-9.402 21.169-13.475 39.986-12.451 32.274 1.758 46.98 42.21 52.911 66.426-15.8-3.46-26.182 2.109-31.708 6.714a7.743 7.743 0 00-.141.113l-.018.013c-.036.031-.068.066-.104.097-.219.189-.432.385-.633.591-.099.101-.187.209-.282.313-.129.144-.26.285-.381.435-.122.152-.232.309-.344.466-.08.112-.164.222-.24.337a9.86 9.86 0 00-.328.546c-.06.106-.125.21-.182.318-.097.183-.181.37-.266.558-.055.121-.112.24-.162.363-.07.171-.129.344-.189.519-.052.149-.105.297-.151.448-.044.15-.079.301-.117.452-.045.181-.091.361-.126.544-.025.129-.042.258-.061.387-.031.205-.062.41-.082.618-.011.12-.015.24-.021.361a9.784 9.784 0 00-.024.642c0 .135.01.271.017.407.008.196.015.391.034.587.019.187.051.372.079.558.023.144.039.287.068.431.054.273.125.543.201.813.016.054.024.109.041.163l.011.04.023.077c4.222 14.018 9.048 30.827 9.507 33.611.923 6.048-1.816 11.841-6.425 13.496a7.128 7.128 0 01-1.385.349c-5.247.809-10.552-4.193-11.568-10.865-.396-2.889-.725-21.031-.802-36.182-.029-5.729-4.682-10.353-10.405-10.353h-.054c-5.746.029-10.382 4.712-10.352 10.459.041 7.839.233 33.826 1.034 39.171 2.501 16.443 15.701 28.411 30.547 28.659 6.399 16.117 21.455 56.503 29.567 98.639z"/><path d="M417.703 50.865c-13.391 0-13.413 20.811 0 20.811 13.391 0 13.413-20.811 0-20.811zM142.576 190.942c-13.391 0-13.413 20.811 0 20.811 13.391 0 13.413-20.811 0-20.811zM77.368 276.268c-13.391 0-13.413 20.811 0 20.811 13.391 0 13.413-20.811 0-20.811zM68.35 382.405c-13.391 0-13.413 20.811 0 20.811 13.391 0 13.412-20.811 0-20.811zM402.023 344.251c-13.391 0-13.413 20.811 0 20.811 13.391 0 13.413-20.811 0-20.811z"/></svg>
